General
Complete name                    : The Memory Keepers Daughter.mkv
Format                           : Matroska
File size                        : 1.48 GiB
Duration                         : 1h 25mn
Overall bit rate                 : 2 464 Kbps


Video
ID                               : 1
Format                           : AVC
Bit rate                         : 1 967 Kbps
Width                            : 716 pixels
Height                           : 574 pixels
Display aspect ratio             : 16:9
Frame rate                       : 25.000 fps
Resolution                       : 8 bits
Colorimetry                      : 4:2:0
Scan type                        : Progressive
Bits/(Pixel*Frame)               : 0.191
Stream size                      : 1.18 GiB (80%)
Writing library                  : x264 core 79

Audio
ID                               : 2
Format                           : AC-3
Format/Info                      : Audio Coding 3
Codec ID                         : A_AC3
Duration                         : 1h 25mn
Bit rate mode                    : Constant
Bit rate                         : 448 Kbps
Channel(s)                       : 6 channels
Channel positions                : Front: L C R, Surround: L R, LFE
Sampling rate                    : 48.0 KHz
Stream size                      : 275 MiB (18%)
Language                         : English

Text #1
Language                         : English

Text #2
Language                         : English

Text #3
Language                         : Spanish

Text #4
Language                         : Danish

Text #5
Language                         : Finnish

Text #6
Language                         : Greek

Text #7
Language                         : Hindi

Text #8
Language                         : Norwegian

Text #9
Language                         : Portuguese

Text #10
Language                         : Swedish

Text #11
Language                         : Turkish

Menu
00:00:00.000                     : Chapter  

